<?xml version="1.0" encoding="utf-8"?>
<!-- Generator: Adobe Illustrator 25.4.1, SVG Export Plug-In . SVG Version: 6.00 Build 0)  -->
<svg version="1.1" id="Layer_1" xmlns="http://www.w3.org/2000/svg" xmlns:xlink="http://www.w3.org/1999/xlink" x="0px" y="0px"
	 width="886px" height="422.799988px" viewBox="0 0 886 422.799988" style="enable-background:new 0 0 886 422.799988;"
	 xml:space="preserve">
<style type="text/css">
	.st0{fill:#231F20;}
	.st1{fill:#FFFFFF;}
</style>
<path class="st0" d="M232.899994,389.5h-6.199997v6.200012h8.600006c4.899994,0,8.5-0.600006,8.5-3.100006
	C243.800003,389.700012,239.199997,389.5,232.899994,389.5z M168.800003,377.799988h-9.199997V384.5h7.699997
	c6.100006,0,9.399994-0.899994,9.399994-3.200012S173.399994,377.799988,168.800003,377.799988z M241.699997,380.5
	c0-2.600006-3.899994-2.700012-8-2.700012h-7v5.600006h8.199997C238.800003,383.399994,241.699997,382.399994,241.699997,380.5z
	 M5.1,4.6v413.799988h875.299988V4.6H5.1z M17.9,19.299999h244.200012v68.599991H17.9V19.299999z M17.799999,102.900002h244.300003
	v252.300018H17.799999V102.900002z M68,403.5H17.9V370h49v7.799988H37.599998v4.799988h24.799999v7.799988H37.599998v5.200012H68
	V403.5z M101.900002,404.200012C86,404.200012,75.699997,399,75.300003,393h18.900002
	c0.400002,1.200012,1.599998,2.100006,3.300003,2.600006c1.599998,0.5,3.699997,0.799988,5.599998,0.799988
	c4.900002,0,8.199997-0.899994,8.199997-2.5c0-5.100006-34.599998-1.600006-34.599998-14.399994
	c0-7.100006,11-10.700012,26.099998-10.700012c16.699997,0,24.300003,4.700012,25.699997,10.600006h-18.800003v0.299988
	c-0.300003-1.100006-1.400002-1.899994-2.900002-2.299988c-1.400002-0.399994-3.099998-0.600006-5.099998-0.600006
	c-4.300003,0-6.300003,0.700012-6.300003,1.899994c0,5,34.600006,1.799988,34.600006,14
	C130,400.5,118.400002,404.200012,101.900002,404.200012z M197.100006,403.5h-20c-0.5-0.700012-1-2.899994-1-5.799988
	c0-4.399994-1.300003-5.799988-10.5-5.799988h-6v11.600006h-19.699997V370h28.399994c20,0,26.600006,3.100006,26.600006,9.600006
	c0,3.899994-3.100006,7.100006-10.100006,8.200012C191.100006,389.100006,195,389.900024,195,396.600006
	C195,401,194.699997,402.5,197.100006,402.5V403.5z M236.300003,403.5h-29.199997V370h28.699997
	c13.5,0,24.300003,1.799988,24.300003,8.399994c0,3.5-4,6-7.899994,7.299988c6.5,0.899994,10,4.100006,10,7.700012
	C262.200012,400.899994,252,403.5,236.300003,403.5z M865.900024,403.5H277V19.200001h588.900024V403.5z"/>
<path class="st1" d="M37.599998,390.399994h24.800003v-7.799988H37.599998v-4.800018h29.300003V370h-49v33.5H68v-7.899994H37.599998
	V390.399994z M95.400002,378.700012c0-1.200012,2-1.899994,6.300003-1.899994c2,0,3.699997,0.200012,5.099998,0.600006
	c1.5,0.399994,2.599998,1.200012,2.900002,2.299988v-0.299988H128.5c-1.400002-5.899994-9-10.600006-25.699997-10.600006
	c-15.099998,0-26.099998,3.600006-26.099998,10.700012c0,12.799988,34.599998,9.299988,34.599998,14.399994
	c0,1.600006-3.300003,2.5-8.199997,2.5c-1.900002,0-4-0.299988-5.599998-0.799988
	c-1.699997-0.5-2.900002-1.399994-3.300003-2.600006H75.300003c0.400002,6,10.699997,11.200012,26.599998,11.200012
	c16.5,0,28.099998-3.700012,28.099998-11.5C130,380.5,95.400002,383.700012,95.400002,378.700012z M195,396.600006
	c0-6.700012-3.899994-7.5-10.199997-8.799988c7-1.100006,10.100006-4.299988,10.100006-8.200012
	c0-6.5-6.600006-9.600006-26.600006-9.600006h-28.399994v33.5h19.699997v-11.600006h6c9.199997,0,10.5,1.399994,10.5,5.799988
	c0,2.899994,0.5,5.100006,1,5.799988h20v-1C194.699997,402.5,195,401,195,396.600006z M167.300003,384.5h-7.699997v-6.700012
	h9.199997c4.600006,0,7.899994,1.200012,7.899994,3.5S173.399994,384.5,167.300003,384.5z M252.199997,385.700012
	c3.900009-1.299988,7.900009-3.799988,7.900009-7.299988c0-6.600006-10.800003-8.399994-24.300003-8.399994h-28.699997v33.5
	h29.199997c15.699997,0,25.900009-2.600006,25.900009-10.100006C262.200012,389.799988,258.700012,386.600006,252.199997,385.700012
	z M226.699997,377.799988h7c4.100006,0,8,0.100006,8,2.700012c0,1.899994-2.899994,2.899994-6.800003,2.899994h-8.199997V377.799988
	z M235.300003,395.700012h-8.600006V389.5h6.199997c6.300003,0,10.899994,0.200012,10.899994,3.100006
	C243.800003,395.100006,240.199997,395.700012,235.300003,395.700012z M885.5,0h-5.099976H5.1H0v4.5v413.799988v4.5h5.1H886V0H885.5
	z M880.400024,418.399994H5.1V4.6h875.299988v413.799988H880.400024z M17.9,19.299999h244.200012v68.599991H17.9V19.299999z
	 M17.799999,102.900002h244.300003v252.300018H17.799999V102.900002z M277,19.200001h588.900024V403.5H277V19.200001z
	 M17.799999,102.900002h244.300003v252.300018H17.799999V102.900002z"/>
<path d="M29.802898,160.06459l189.99881-49.064896l14.595291,52.434296l-61.027512,15.758896l40.934036,147.339371
	l-67.931107,17.570129l-40.968819-147.3591l-61.018055,15.778625L29.802898,160.06459z M204.662323,34.099998h16.047958
	l18.641785,21.186432l-0.658722-8.850662v-12.33577h16.406662v38.800003h-16.030273l-18.662354-21.123749l0.658737,8.828724
	v12.295025h-16.403793V34.099998z M146.834412,34.099998h42.559311v9.038712h-25.458557v5.575539h21.550201v9.057514h-21.550201
	v6.07386h26.487854v9.054379h-43.588608V34.099998z M87.006767,34.099998h42.556358v9.038712h-25.437912v5.575539h21.526596
	v9.057514h-21.526596v6.07386h26.484802v9.054379H87.006767V34.099998z M24.6,34.099998h47.86161v10.192055h-15.36274v28.607948
	H39.968666V44.292053H24.6V34.099998z"/>
<g>
	<path d="M315.337402,80.288574l13.837891,48.020508l13.837891-48.020508h8.594238v58.853516h-6.664062v-22.918945
		l0.618652-22.959473l-13.874023,45.878418h-5.098145l-13.801758-45.716797l0.619141,22.797852v22.918945h-6.664062V80.288574
		H315.337402z"/>
	<path d="M369.632812,83.805176c0,1.212891-0.303711,2.223145-0.910156,3.031738
		c-0.607422,0.808105-1.529785,1.212402-2.767578,1.212402c-1.214355,0-2.125-0.404297-2.731445-1.212402
		c-0.606934-0.808594-0.910156-1.818848-0.910156-3.031738c0-1.212402,0.303223-2.236328,0.910156-3.071777
		c0.606445-0.834961,1.51709-1.253418,2.731445-1.253418c1.213379,0,2.130371,0.424805,2.749023,1.273438
		C369.323242,81.602051,369.632812,82.619629,369.632812,83.805176z M369.123047,139.14209h-6.445312V95.40625h6.445312V139.14209z"
		/>
	<path d="M386.202148,139.14209h-6.445312V77.054688h6.445312V139.14209z"/>
	<path d="M394.978027,115.293457c0-6.736328,1.134766-11.870117,3.404785-15.400391s5.528809-5.29541,9.777832-5.29541
		c3.762695,0,6.700195,1.697754,8.8125,5.093262v-22.63623h6.445312v62.087402h-5.898926l-0.328125-4.688965
		c-2.111816,3.665039-5.134277,5.497559-9.067383,5.497559c-4.078613,0-7.277344-1.758301-9.595215-5.275391
		c-2.318848-3.516602-3.502441-8.481445-3.550781-14.89502V115.293457z M401.423828,119.353516
		c0,4.898438,0.655273,8.498535,1.966309,10.799316c1.311035,2.30127,3.446777,3.45166,6.40918,3.45166
		c3.20459,0,5.595215-1.789551,7.173828-5.369141v-22.042969c-1.651367-3.499023-4.030273-5.248535-7.137695-5.248535
		c-2.961914,0-5.098145,1.150879-6.40918,3.45166c-1.310547,2.30127-1.978516,5.833984-2.002441,10.597168V119.353516z"/>
	<path d="M451.3125,139.14209V80.288574h15.113281c4.830078,0,8.466797,1.307129,10.90625,3.920898
		c2.439453,2.614258,3.660156,6.535156,3.660156,11.762695c0,2.748535-0.619141,5.173828-1.857422,7.275879
		c-1.238281,2.101562-2.913086,3.732422-5.025391,4.890625c2.426758,0.808594,4.351562,2.46582,5.771484,4.972168
		c1.419922,2.505859,2.130859,5.524414,2.130859,9.054199c0,5.282227-1.305664,9.432129-3.915039,12.449707
		c-2.610352,3.018555-6.331055,4.527344-11.161133,4.527344H451.3125z M457.976562,105.390137h8.558594
		c2.305664,0,4.168945-0.86377,5.589844-2.592773c1.419922-1.728027,2.129883-4.023438,2.129883-6.885742
		c0-3.240723-0.643555-5.597168-1.929688-7.068848c-1.287109-1.47168-3.253906-2.208008-5.899414-2.208008h-8.449219V105.390137z
		 M457.976562,111.615234v21.180664h9.104492c2.524414,0,4.527344-0.922852,6.008789-2.769043
		c1.480469-1.845215,2.220703-4.438965,2.220703-7.780762c0-7.086914-2.694336-10.630859-8.083984-10.630859H457.976562z"/>
	<path d="M498.035156,139.14209h-6.446289V77.054688h6.446289V139.14209z"/>
	<path d="M506.811523,115.25293c0-6.359375,1.388672-11.391602,4.168945-15.097168
		c2.779297-3.705078,6.451172-5.558105,11.015625-5.558105s8.236328,1.805664,11.015625,5.416504
		c2.780273,3.611328,4.206055,8.528809,4.279297,14.753906v4.60791c0,6.333008-1.383789,11.345215-4.151367,15.036621
		c-2.767578,3.692383-6.458008,5.538086-11.070312,5.538086c-4.564453,0-8.224609-1.791992-10.979492-5.375977
		c-2.755859-3.583984-4.181641-8.43457-4.27832-14.551758V115.25293z M513.256836,119.375977
		c0,4.500488,0.794922,8.037598,2.384766,10.61084c1.589844,2.57373,3.732422,3.859863,6.427734,3.859863
		c5.680664,0,8.605469-4.553711,8.776367-13.662109v-4.931641c0-4.472656-0.801758-8.009766-2.40332-10.610352
		c-1.602539-2.600586-3.750977-3.900879-6.446289-3.900879c-2.646484,0-4.764648,1.300293-6.354492,3.900879
		s-2.384766,6.123535-2.384766,10.569824V119.375977z"/>
	<path d="M544.246094,115.25293c0-6.359375,1.388672-11.391602,4.168945-15.097168
		c2.779297-3.705078,6.451172-5.558105,11.015625-5.558105s8.236328,1.805664,11.015625,5.416504
		c2.780273,3.611328,4.206055,8.528809,4.279297,14.753906v4.60791c0,6.333008-1.383789,11.345215-4.151367,15.036621
		c-2.767578,3.692383-6.458008,5.538086-11.070312,5.538086c-4.564453,0-8.224609-1.791992-10.979492-5.375977
		c-2.755859-3.583984-4.181641-8.43457-4.27832-14.551758V115.25293z M550.691406,119.375977
		c0,4.500488,0.794922,8.037598,2.384766,10.61084c1.589844,2.57373,3.732422,3.859863,6.427734,3.859863
		c5.680664,0,8.605469-4.553711,8.776367-13.662109v-4.931641c0-4.472656-0.801758-8.009766-2.40332-10.610352
		c-1.602539-2.600586-3.750977-3.900879-6.446289-3.900879c-2.646484,0-4.764648,1.300293-6.354492,3.900879
		s-2.384766,6.123535-2.384766,10.569824V119.375977z"/>
	<path d="M581.681641,115.293457c0-6.736328,1.133789-11.870117,3.404297-15.400391
		c2.269531-3.530273,5.529297-5.29541,9.777344-5.29541c3.762695,0,6.701172,1.697754,8.8125,5.093262v-22.63623h6.446289v62.087402
		h-5.899414l-0.328125-4.688965c-2.112305,3.665039-5.134766,5.497559-9.067383,5.497559
		c-4.078125,0-7.277344-1.758301-9.595703-5.275391c-2.318359-3.516602-3.501953-8.481445-3.549805-14.89502V115.293457z
		 M588.126953,119.353516c0,4.898438,0.655273,8.498535,1.96582,10.799316c1.311523,2.30127,3.447266,3.45166,6.40918,3.45166
		c3.205078,0,5.595703-1.789551,7.173828-5.369141v-22.042969c-1.650391-3.499023-4.029297-5.248535-7.136719-5.248535
		c-2.962891,0-5.098633,1.150879-6.40918,3.45166c-1.311523,2.30127-1.979492,5.833984-2.00293,10.597168V119.353516z"/>
	<path d="M315.337402,175.288086l13.837891,48.020508l13.837891-48.020508h8.594238v58.853516h-6.664062v-22.918945
		l0.618652-22.959473l-13.874023,45.878418h-5.098145l-13.801758-45.716797l0.619141,22.797852v22.918945h-6.664062v-58.853516
		H315.337402z"/>
	<path d="M369.632812,178.804688c0,1.212891-0.303711,2.223145-0.910156,3.031738
		c-0.607422,0.808105-1.529785,1.212402-2.767578,1.212402c-1.214355,0-2.125-0.404297-2.731445-1.212402
		c-0.606934-0.808594-0.910156-1.818848-0.910156-3.031738c0-1.212402,0.303223-2.236328,0.910156-3.071777
		c0.606445-0.834961,1.51709-1.253418,2.731445-1.253418c1.213379,0,2.130371,0.424805,2.749023,1.273438
		C369.323242,176.601562,369.632812,177.619141,369.632812,178.804688z M369.123047,234.141602h-6.445312v-43.73584h6.445312
		V234.141602z"/>
	<path d="M386.202148,234.141602h-6.445312v-62.087402h6.445312V234.141602z"/>
	<path d="M394.978027,210.292969c0-6.736328,1.134766-11.870117,3.404785-15.400391s5.528809-5.29541,9.777832-5.29541
		c3.762695,0,6.700195,1.697754,8.8125,5.093262v-22.63623h6.445312v62.087402h-5.898926l-0.328125-4.688477
		c-2.111816,3.665039-5.134277,5.49707-9.067383,5.49707c-4.078613,0-7.277344-1.758789-9.595215-5.275391
		c-2.318848-3.516602-3.502441-8.481445-3.550781-14.895508V210.292969z M401.423828,214.352539
		c0,4.898438,0.655273,8.499023,1.966309,10.799805c1.311035,2.301758,3.446777,3.451172,6.40918,3.451172
		c3.20459,0,5.595215-1.789062,7.173828-5.369141v-22.04248c-1.651367-3.499023-4.030273-5.248535-7.137695-5.248535
		c-2.961914,0-5.098145,1.150879-6.40918,3.45166c-1.310547,2.30127-1.978516,5.833984-2.002441,10.597168V214.352539z"/>
	<path d="M458.013672,227.795898h20.792969v6.345703H451.3125v-58.853516h6.701172V227.795898z"/>
	<path d="M506.119141,234.141602c-0.388672-0.943359-0.667969-2.532227-0.837891-4.769531
		c-2.282227,3.71875-5.195312,5.578125-8.740234,5.578125c-3.568359,0-6.354492-1.111328-8.357422-3.334961
		s-3.003906-5.355469-3.003906-9.397461c0-4.447266,1.359375-7.976562,4.078125-10.59082
		c2.71875-2.61377,6.446289-3.947266,11.179688-4.001953h4.734375v-4.648438c0-2.613281-0.522461-4.472656-1.56543-5.578125
		c-1.044922-1.104492-2.634766-1.657227-4.770508-1.657227c-1.943359,0-3.520508,0.640625-4.734375,1.919922
		c-1.213867,1.280273-1.821289,2.904297-1.821289,4.871094h-6.445312c0-2.236816,0.594727-4.37207,1.78418-6.406738
		s2.791992-3.631348,4.807617-4.790039c2.014648-1.158203,4.260742-1.738281,6.736328-1.738281
		c4.030273,0,7.094727,1.111816,9.195312,3.334961c2.099609,2.223145,3.173828,5.463867,3.222656,9.721191v22.070312
		c0.023438,3.369141,0.436523,6.291992,1.238281,8.771484v0.646484H506.119141z M497.524414,228.442383
		c1.578125,0,3.083008-0.485352,4.515625-1.455078c1.432617-0.970703,2.476562-2.182617,3.131836-3.638672v-10.427734h-3.641602
		c-3.058594,0.053711-5.474609,0.81543-7.24707,2.283203c-1.772461,1.46875-2.658203,3.523438-2.658203,6.164062
		c0,2.479492,0.449219,4.27832,1.347656,5.396484C493.870117,227.882812,495.387695,228.442383,497.524414,228.442383z"/>
	<path d="M527.640625,190.405762l0.181641,4.729004c2.5-3.691406,5.692383-5.537598,9.577148-5.537598
		c6.967773,0,10.5,5.160645,10.597656,15.481445v29.062988h-6.40918v-28.739746c0-3.421875-0.516602-5.854004-1.547852-7.295898
		c-1.032227-1.441406-2.580078-2.162598-4.643555-2.162598c-1.601562,0-3.040039,0.593262-4.31543,1.778809
		c-1.274414,1.186035-2.299805,2.735352-3.077148,4.648438v31.770996h-6.445312v-43.73584H527.640625z"/>
	<path d="M556.37207,210.292969c0-6.817383,1.116211-11.971191,3.350586-15.460938
		c2.233398-3.489746,5.498047-5.234863,9.795898-5.234863c4.005859,0,7.051758,1.899902,9.139648,5.699707l0.328125-4.891113
		h5.826172v44.140137c0,5.416016-1.25,9.573242-3.750977,12.469727c-2.5,2.896484-5.984375,4.345703-10.451172,4.345703
		c-1.942383,0-4.121094-0.532227-6.536133-1.59668c-2.416016-1.06543-4.230469-2.378906-5.444336-3.941406l2.62207-4.931641
		c2.669922,2.911133,5.620117,4.366211,8.848633,4.366211c5.365234,0,8.121094-3.248047,8.266602-9.742188v-5.699219
		c-2.087891,3.422852-5.049805,5.133789-8.885742,5.133789c-4.078125,0-7.258789-1.704102-9.541016-5.113281
		s-3.47168-8.306641-3.568359-14.693359V210.292969z M562.817383,214.352539c0,4.898438,0.649414,8.499023,1.948242,10.799805
		c1.298828,2.301758,3.428711,3.451172,6.391602,3.451172c3.204102,0,5.607422-1.816406,7.209961-5.449219V201.3125
		c-1.674805-3.579102-4.054688-5.369141-7.137695-5.369141c-2.961914,0-5.097656,1.150879-6.40918,3.45166
		c-1.310547,2.30127-1.978516,5.833984-2.00293,10.597168V214.352539z"/>
	<path d="M614.492188,230.301758c-2.136719,3.098633-5.255859,4.648438-9.358398,4.648438
		c-3.569336,0-6.263672-1.367188-8.084961-4.102539c-1.820312-2.735352-2.743164-6.716797-2.767578-11.945312v-28.496582h6.40918
		v27.971191c0,6.818359,1.844727,10.226562,5.535156,10.226562c3.90918,0,6.603516-1.939453,8.084961-5.820312v-32.377441h6.445312
		v43.73584h-6.118164L614.492188,230.301758z"/>
	<path d="M650.725586,234.141602c-0.388672-0.943359-0.667969-2.532227-0.837891-4.769531
		c-2.282227,3.71875-5.195312,5.578125-8.740234,5.578125c-3.568359,0-6.354492-1.111328-8.357422-3.334961
		s-3.003906-5.355469-3.003906-9.397461c0-4.447266,1.359375-7.976562,4.078125-10.59082
		c2.71875-2.61377,6.446289-3.947266,11.179688-4.001953h4.734375v-4.648438c0-2.613281-0.522461-4.472656-1.56543-5.578125
		c-1.044922-1.104492-2.634766-1.657227-4.770508-1.657227c-1.943359,0-3.520508,0.640625-4.734375,1.919922
		c-1.213867,1.280273-1.821289,2.904297-1.821289,4.871094h-6.445312c0-2.236816,0.594727-4.37207,1.78418-6.406738
		s2.791992-3.631348,4.807617-4.790039c2.014648-1.158203,4.260742-1.738281,6.736328-1.738281
		c4.030273,0,7.094727,1.111816,9.195312,3.334961c2.099609,2.223145,3.173828,5.463867,3.222656,9.721191v22.070312
		c0.023438,3.369141,0.436523,6.291992,1.238281,8.771484v0.646484H650.725586z M642.130859,228.442383
		c1.578125,0,3.083008-0.485352,4.515625-1.455078c1.432617-0.970703,2.476562-2.182617,3.131836-3.638672v-10.427734h-3.641602
		c-3.058594,0.053711-5.474609,0.81543-7.24707,2.283203c-1.772461,1.46875-2.658203,3.523438-2.658203,6.164062
		c0,2.479492,0.449219,4.27832,1.347656,5.396484C638.476562,227.882812,639.994141,228.442383,642.130859,228.442383z"/>
	<path d="M664.890625,210.292969c0-6.817383,1.116211-11.971191,3.350586-15.460938
		c2.233398-3.489746,5.498047-5.234863,9.795898-5.234863c4.005859,0,7.051758,1.899902,9.139648,5.699707l0.328125-4.891113
		h5.826172v44.140137c0,5.416016-1.25,9.573242-3.750977,12.469727c-2.5,2.896484-5.984375,4.345703-10.451172,4.345703
		c-1.942383,0-4.121094-0.532227-6.536133-1.59668c-2.416016-1.06543-4.230469-2.378906-5.444336-3.941406l2.62207-4.931641
		c2.669922,2.911133,5.620117,4.366211,8.848633,4.366211c5.365234,0,8.121094-3.248047,8.266602-9.742188v-5.699219
		c-2.087891,3.422852-5.049805,5.133789-8.885742,5.133789c-4.078125,0-7.258789-1.704102-9.541016-5.113281
		s-3.47168-8.306641-3.568359-14.693359V210.292969z M671.335938,214.352539c0,4.898438,0.649414,8.499023,1.948242,10.799805
		c1.298828,2.301758,3.428711,3.451172,6.391602,3.451172c3.204102,0,5.607422-1.816406,7.209961-5.449219V201.3125
		c-1.674805-3.579102-4.054688-5.369141-7.137695-5.369141c-2.961914,0-5.097656,1.150879-6.40918,3.45166
		c-1.310547,2.30127-1.978516,5.833984-2.00293,10.597168V214.352539z"/>
	<path d="M717.001953,234.950195c-4.904297,0-8.666992-1.623047-11.288086-4.871094
		c-2.62207-3.24707-3.958008-8.009766-4.005859-14.289062v-5.294922c0-6.520996,1.280273-11.634277,3.841797-15.339844
		c2.560547-3.705078,6.135742-5.558105,10.724609-5.558105c4.611328,0,8.05957,1.630859,10.341797,4.891113
		c2.28125,3.260742,3.446289,8.34082,3.496094,15.23877v4.688965h-21.995117v1.010742
		c0,4.688477,0.794922,8.097656,2.384766,10.226562s3.87793,3.193359,6.864258,3.193359
		c1.893555,0,3.5625-0.397461,5.007812-1.192383c1.443359-0.794922,2.796875-2.054688,4.05957-3.779297l3.350586,4.526367
		C726.992188,232.767578,722.731445,234.950195,717.001953,234.950195z M716.274414,195.741211
		c-2.670898,0-4.649414,1.017578-5.936523,3.051758c-1.287109,2.035156-2.014648,5.194336-2.18457,9.479004h15.512695v-0.970215
		c-0.169922-4.149414-0.84375-7.114258-2.020508-8.892578C720.467773,196.630371,718.677734,195.741211,716.274414,195.741211z"/>
	<path d="M321.89209,317.783203l12.126465-47.495117h7.319336l-16.496094,58.853516h-5.82666l-16.459961-58.853516h7.283203
		L321.89209,317.783203z"/>
	<path d="M355.066406,273.804688c0,1.212891-0.303711,2.223633-0.910156,3.03125
		c-0.607422,0.808594-1.529785,1.212891-2.767578,1.212891c-1.214355,0-2.125-0.404297-2.731445-1.212891
		c-0.606934-0.807617-0.910156-1.818359-0.910156-3.03125s0.303223-2.236328,0.910156-3.072266
		c0.606445-0.834961,1.51709-1.25293,2.731445-1.25293c1.213379,0,2.130371,0.424805,2.749023,1.273438
		C354.756836,271.601562,355.066406,272.619141,355.066406,273.804688z M354.556641,329.141602h-6.445312v-43.736328h6.445312
		V329.141602z"/>
	<path d="M363.333008,305.25293c0-6.359375,1.389648-11.392578,4.169434-15.097656s6.45166-5.557617,11.016113-5.557617
		c4.563477,0,8.235352,1.805664,11.015625,5.416016c2.779297,3.611328,4.206055,8.529297,4.278809,14.753906v4.608398
		c0,6.332031-1.383789,11.344727-4.151367,15.036133c-2.767578,3.692383-6.458008,5.538086-11.070312,5.538086
		c-4.564453,0-8.224609-1.791992-10.979492-5.375977c-2.755371-3.583984-4.182129-8.43457-4.278809-14.551758V305.25293z
		 M369.778809,309.375977c0,4.5,0.794434,8.037109,2.385254,10.610352c1.589355,2.573242,3.732422,3.860352,6.427246,3.860352
		c5.680664,0,8.605957-4.553711,8.775879-13.663086v-4.930664c0-4.473633-0.800781-8.009766-2.40332-10.611328
		c-1.602051-2.599609-3.750977-3.900391-6.445312-3.900391c-2.646484,0-4.765137,1.300781-6.354492,3.900391
		c-1.59082,2.601562-2.385254,6.124023-2.385254,10.570312V309.375977z"/>
	<path d="M409.071289,329.141602h-6.445312v-62.086914h6.445312V329.141602z"/>
	<path d="M433.287598,329.950195c-4.904297,0-8.666992-1.623047-11.289062-4.871094
		c-2.62207-3.24707-3.95752-8.009766-4.005859-14.289062v-5.294922c0-6.521484,1.280273-11.634766,3.841797-15.339844
		c2.561035-3.705078,6.13623-5.557617,10.724609-5.557617c4.612305,0,8.060059,1.629883,10.342285,4.890625
		c2.28125,3.260742,3.446289,8.34082,3.496094,15.239258v4.688477h-21.995605v1.010742
		c0,4.688477,0.794922,8.097656,2.385254,10.226562c1.589844,2.128906,3.878418,3.193359,6.864258,3.193359
		c1.894043,0,3.5625-0.397461,5.007324-1.192383c1.444336-0.794922,2.797852-2.054688,4.060547-3.779297l3.350098,4.526367
		C443.277344,327.767578,439.016602,329.950195,433.287598,329.950195z M432.559082,290.741211
		c-2.670898,0-4.649414,1.017578-5.935547,3.051758c-1.287109,2.035156-2.015625,5.194336-2.185059,9.478516h15.513184v-0.969727
		c-0.17041-4.149414-0.84375-7.114258-2.020996-8.892578C436.752441,291.630859,434.962402,290.741211,432.559082,290.741211z"/>
	<path d="M460.199219,285.405273l0.181641,4.729492c2.5-3.691406,5.692383-5.537109,9.577148-5.537109
		c6.967773,0,10.5,5.160156,10.597656,15.481445v29.0625h-6.40918v-28.739258c0-3.421875-0.516602-5.854492-1.547852-7.296875
		c-1.032227-1.44043-2.580078-2.162109-4.643555-2.162109c-1.601562,0-3.040039,0.592773-4.31543,1.77832
		c-1.274414,1.186523-2.299805,2.735352-3.077148,4.648438v31.771484h-6.445312v-43.736328H460.199219z"/>
	<path d="M503.897461,323.84668c2.135742,0,3.847656-0.734375,5.134766-2.203125
		c1.286133-1.46875,1.990234-3.563477,2.112305-6.286133h6.081055c-0.145508,4.204102-1.487305,7.6875-4.023438,10.449219
		c-2.537109,2.762695-5.638672,4.143555-9.304688,4.143555c-4.879883,0-8.600586-1.704102-11.161133-5.113281
		c-2.561523-3.40918-3.841797-8.481445-3.841797-15.21875v-4.810547c0-6.601562,1.274414-11.621094,3.823242-15.056641
		s6.263672-5.15332,11.143555-5.15332c4.029297,0,7.228516,1.414062,9.595703,4.244141
		c2.366211,2.829102,3.623047,6.696289,3.768555,11.600586h-6.081055c-0.145508-3.233398-0.84375-5.65918-2.09375-7.275391
		c-1.250977-1.617188-2.980469-2.425781-5.189453-2.425781c-2.865234,0-4.989258,1.044922-6.373047,3.132812
		c-1.383789,2.088867-2.099609,5.517578-2.148438,10.287109v5.578125c0,5.147461,0.685547,8.785156,2.057617,10.914062
		C498.768555,322.782227,500.935547,323.84668,503.897461,323.84668z"/>
	<path d="M538.74707,329.950195c-4.904297,0-8.666992-1.623047-11.288086-4.871094
		c-2.62207-3.24707-3.958008-8.009766-4.005859-14.289062v-5.294922c0-6.521484,1.280273-11.634766,3.841797-15.339844
		c2.560547-3.705078,6.135742-5.557617,10.724609-5.557617c4.611328,0,8.05957,1.629883,10.341797,4.890625
		c2.28125,3.260742,3.446289,8.34082,3.496094,15.239258v4.688477h-21.995117v1.010742
		c0,4.688477,0.794922,8.097656,2.384766,10.226562s3.87793,3.193359,6.864258,3.193359
		c1.893555,0,3.5625-0.397461,5.007812-1.192383c1.443359-0.794922,2.796875-2.054688,4.05957-3.779297l3.350586,4.526367
		C548.737305,327.767578,544.476562,329.950195,538.74707,329.950195z M538.019531,290.741211
		c-2.670898,0-4.649414,1.017578-5.936523,3.051758c-1.287109,2.035156-2.014648,5.194336-2.18457,9.478516h15.512695v-0.969727
		c-0.169922-4.149414-0.84375-7.114258-2.020508-8.892578C542.212891,291.630859,540.422852,290.741211,538.019531,290.741211z"/>
</g>
</svg>
