<?xml version="1.0" encoding="utf-8"?><svg xmlns="http://www.w3.org/2000/svg" viewBox="0 0 773.2 424.2"><path fill="#ffffff" d="M436.6 171.2h-.4l-1.7 3h69.3l10.7-29.5-3.4.6c-5.1 13.9-7.8 21.2-20.2 21.2h-15.1c-12.4 0-12.5-7-12.5-21V38.2c0-14 .1-21 12.5-21h.4l1.7-3h-43.4l1.7 3h.4c12.4 0 12.5 7 12.5 21v112c0 14-.1 21-12.5 21zM530.9 171.2h-.7l-1.7 3H557c6.6 0 13.7 1 21.3 1.5 2 .2 4.5.3 7.5.3 39.3 0 71.1-24.6 71.1-80.9 0-56.3-31.8-80.9-71.1-80.9h-57.2l1.7 3h.7c12.4 0 12.5 7 12.5 21v112c-.1 14-.3 21-12.6 21zm45.8-149.9h2c27.8 0 62.9 22.4 62.9 73.7 0 51.3-25.2 73.7-53.1 73.7-4.6 0-12.4.4-19.1-2.3-6.8-2.7-12.5-8.5-12.5-21v-103c0-23 10.8-21.4 19.8-21.1zM219.3 177.1c36.6 0 66.2-37.1 66.2-82.9s-29.7-82.9-66.2-82.9-66.2 37.1-66.2 82.9 29.7 82.9 66.2 82.9zm0-158.7c27.7 0 50.1 33.7 50.1 75.3S247 169 219.3 169c-27.7 0-50.1-33.7-50.1-75.3s22.4-75.3 50.1-75.3zM428.1 174.2l-1.7-3h-.4c-12.4 0-22.8-7.9-28-21L367.3 73c10.5-5.1 17.8-16 17.5-28.5-.4-16.9-14.6-30.3-31.5-30.3h-52.5l1.7 3h.4c12.4 0 12.5 7 12.5 21v112c0 14-.1 21-12.5 21h-.4l-1.7 3h42.8l-1.7-3h-.4c-12.4 0-12.5-7-12.5-21V88.1c0-11 13-12 21.3-12.1 1.6 0 3.1 1 3.7 2.5l28.5 71.7c5.8 14.5 19.8 24 35.4 24h10.2zM353.8 68.8c-7.3 0-25 .8-25-12.1V25.5c0-2.2 1.8-4 4-4h10.3c19.3 0 26.4 10.6 26.4 23.7s-7 23.6-15.7 23.6zM773.2 126.9c0-53.5-49.8-59.3-49.8-88.8 0-14.1 10.3-20.8 22.1-20.8s22.1 5.9 22.1 20.8v3.3l3 1.7V18.2c-5.6-6.1-14.4-7.1-25.7-7.1-20.2 0-32.4 14.7-32.4 31.9 0 34.2 48.8 53.8 48.8 93.1 0 15.3-7.8 31.9-24.1 31.9-15.4 0-24.8-12-25.8-28.9l-3-1.7v31.1c7.9 6.7 17.5 8.4 25.1 8.4 15.6.2 39.7-11.5 39.7-50zM154.4 17.2l1.7-3h-37.3l1.7 3h.7c12.4 0 10.8 6.6 7.3 19.7L98.3 151.2 83 84.6 80.4 73c-.2-.9-1.4-.9-1.7 0l-20 75.7L33.1 37.2c-3.1-13.6-4.4-20 7.9-20h.7l1.7-3H0l1.7 3h.7c12.4 0 14.2 7.5 17.2 20.3L51 173.9c.4 1.8 2 3.1 3.9 3.1h.6c1.8 0 3.4-1.2 3.9-3l16.5-62.2L90 173.9c.4 1.8 2 3.1 3.9 3.1h1.9c1.8 0 3.4-1.2 3.9-3l36.2-137c3.6-13.5 5.4-19.8 17.7-19.8h.8zM685.8 50.8l4.3 2.5V8.5L666.8 0l2.2 12.5c16.6 6 16.8 17.2 16.8 38.3zM131.8 381.7c-8.6 18.2-13.4 27.7-34.5 27.7H70.7c-14.4 0-19.1-4.3-20.6-12.8V291.5c0-2.2 1.8-4 4-4h27.7c18.4 0 21.3.2 21.3 21.4v.7l3.9 3V308c0-13.4 3.2-26.7 9.3-38.6l-5.8.8c-2.3 4.8-3.5 7.3-9.1 7.3H54.1c-2.2 0-4-1.8-4-4v-49.8c0-2.2 1.8-4 4-4h38.2c18.4 0 21.3.2 21.3 21.4v-21.4 22.1l3.9 3v-4.6c0-13.4.7-21.5 6.8-33.4l-5.8.8c-.6 1.3-3.5 2.1-4.9 2.1H.1l3 3.9h.7c21.1 0 21.4 9.2 21.4 27.6v147c0 18.4-.2 27.6-21.4 27.6h-.7l-3 3.9h119.2l18.3-38.7-5.8.7zM732.7 409.4h-26.5c-14.4 0-19.1-4.3-20.6-12.8V291.5c0-2.2 1.8-4 4-4h27.7c18.4 0 21.3.2 21.3 21.4v.7l3.9 3V308c0-13.4 3.2-26.7 9.3-38.6l-5.8.8c-2.3 4.8-3.5 7.3-9.1 7.3h-47.3c-2.2 0-4-1.8-4-4v-49.8c0-2.2 1.8-4 4-4h38.3c18.4 0 21.3.2 21.3 21.4v.7l3.9 3v-4.6c0-13.4.7-21.5 6.8-33.4l-5.8.8c-.6 1.3-3.5 2.1-4.9 2.1H635.6l3 3.9h.7c21.1 0 21.4 9.2 21.4 27.6v147c0 18.4-.2 27.6-21.4 27.6h-.7l-3 3.9h119.2l18.3-38.7-5.8.8c-8.7 18.1-13.5 27.6-34.6 27.6zM254.4 209.5H156l3 3.9h22-21.4c21.1 0 21.4 9.2 21.4 27.6v147c0 18.4-.2 27.6-21.4 27.6h-.7l-3 3.9H205.2c11.2 0 23.2 1.4 36.1 2 3.5.2 7.8.4 12.9.4 67 0 121.3-32.3 121.3-106.2s-54.1-106.2-121.1-106.2zm4.9 203c-15.8 0-54 1.9-54-30.6V246.7c0-29.7 17.9-28.3 33-27.8 1.3.1 2.7.1 4.2.1 47.5 0 107.3 29.5 107.3 96.8s-43 96.7-90.5 96.7zM551.3 291.5h.7c21.1 0 21.4 9.1 21.4 27.5v77.8c0 5.5-3.8 10.3-9.2 11.5-10.6 2.5-23 3.8-37.5 3.8-45.5 0-98-43.9-98-98s16-98 98-98c16.5 0 32 4.1 45.6 11.2 13.6 7.2 19.7 15.9 19.7 29.9l5.3 4V255c0-18.2 1-29.1 9.3-45.4l-7.9 1.1c-4.6 6.2-20.9.6-38-2.2-10.6-1.7-21.8-2.5-33.3-2.5-68.4 0-123.8 37.2-123.8 109.2S459 424.4 527.4 424.4c24.3 0 46.9-3.6 66-11.8 2.5-1.1 4.1-3.6 4.1-6.3v-92.6c0-14.7.2-22 17-22h.7l3-3.9h-70l3.1 3.7z"/></svg>