<svg width="128" height="31" viewBox="0 0 128 31" fill="none" xmlns="http://www.w3.org/2000/svg">
<g clip-path="url(#clip0_6_2)">
<rect width="128" height="31" fill="#F4D07E"/>
<path d="M19.9786 28.9033C11.9425 27.7503 1.56252 25.0599 -2.62295 23.8588C-3.79489 18.8143 -5.8374 8.58116 -4.63198 8.00465C-3.12521 7.284 4.40865 10.8872 9.43122 14.4904L9.43124 14.4904C14.4538 18.0936 16.4628 19.5349 21.9876 20.2556C27.5125 20.9762 30.526 15.9317 40.5712 12.3285C50.6163 8.72529 52.1231 8.00465 57.1456 5.84272C62.1682 3.68079 67.1908 -1.36371 75.2269 -3.52564C83.263 -5.68757 89.7924 0.0775743 96.3217 2.96015C102.851 5.84272 109.38 7.284 124.95 10.8872C129.32 11.8985 131.881 12.3481 133.248 12.4537L132.484 10.8872C134.223 11.6669 135.779 12.6491 133.248 12.4537L136 18.0936C136 20.9762 134.594 26.7414 128.968 26.7414C121.937 26.7414 120.43 28.9033 109.38 23.8588C98.3307 18.8143 84.7698 13.7698 65.684 14.4904C46.5982 15.2111 30.0238 30.3446 19.9786 28.9033Z" fill="#B8853B"/>
<path d="M19 29.5C14.5124 29.5 0.181084 26.2328 -4 25.2134L-6 35L139 30.7184C138.666 29.9028 137.211 29.468 134 28C129.986 26.165 122.547 31.33 109 25.2134C98.9419 20.672 98.8616 19.7084 92.3391 19.7084C85.8166 19.7084 86.3183 20.9318 76.2837 16.6501C66.2491 12.3685 55.0777 18.3116 47 20.5C37.9689 22.9467 38.0657 29.5 19 29.5Z" fill="#B8853B"/>
<path d="M18 17.5C15.6 17.1 3.33333 9 -2.5 5L-16 -12.5L137.5 -6.5L129.5 10C126.833 9.66667 121.1 8.8 119.5 8C117.5 7 103 5 98.5 3C94 0.999998 93.5 -3 91 -4C88.5 -5 62.5 -1.5 58.5 1C54.5 3.5 49 7.5 46 9C43 10.5 31 14.5 28.5 16.5C26 18.5 21 18 18 17.5Z" fill="#B8853B"/>
<rect width="128" height="31" fill="url(#paint0_linear_6_2)"/>
<path d="M-3.5 18C10 19.5 20 25.5 34 25.5C48 25.5 52.5 27 66 25.5C79.5 24 92 16 97 12C102 8 112.5 5.5 121.5 6C130.5 6.5 140 18 141.5 18" stroke="#F4D07E" stroke-opacity="0.75"/>
<path d="M137.5 13.5C128 15.5 125 13.5 120 18.5C115 23.5 120.5 31 108 27C95.5 23 94.5 22.5 89.5 16C84.5 9.5 90.5 7.5 79 5C67.5 2.5 62.5 1.5 54.5 4C46.5 6.5 47.5 12 31.5 12C15.5 12 19 13.5 2 8L-14.5 0.5" stroke="#F4D07E" stroke-opacity="0.75"/>
</g>
<defs>
<linearGradient id="paint0_linear_6_2" x1="64" y1="5.49108e-06" x2="61" y2="33.5" gradientUnits="userSpaceOnUse">
<stop stop-color="#FCDB8D"/>
<stop offset="1" stop-color="#D9D9D9" stop-opacity="0"/>
</linearGradient>
<clipPath id="clip0_6_2">
<rect width="128" height="31" fill="white"/>
</clipPath>
</defs>
</svg>
